<svg width="500" height="250" viewBox="0 0 500 250" fill="none" xmlns="http://www.w3.org/2000/svg">
<path d="M144.931 0H146.9L148.376 2.42248L150.344 5.57171L152.805 10.4167L154.528 13.0814L157.48 18.6531L159.449 21.8023L162.402 27.1318L163.878 29.312L166.585 34.6415L168.307 37.3062L171.26 42.8779L173.228 46.0271L176.181 51.3566L177.657 53.5368L178.888 56.2015L176.919 60.0775L174.459 64.1957L172.49 67.8295L171.26 69.7674L168.799 74.1279L166.831 77.2771L165.354 79.6996L162.894 84.0601L159.449 89.874L157.48 93.2655L155.02 97.3837L153.543 99.8062L150.837 104.651L149.606 106.589L146.9 111.434L145.423 113.614L143.701 116.521L141.24 120.882L139.764 123.304L137.303 127.665L135.827 130.087L133.366 134.205L131.89 136.628L129.183 141.473L127.215 144.622L125.246 148.256L123.77 150.436L122.047 153.343L119.587 157.703L118.11 160.126L115.65 164.486L114.173 166.909L111.713 171.027L110.236 173.45L107.53 178.295L106.053 180.717L103.839 184.593L101.87 187.742L99.1634 192.345L96.7028 196.705L94.2421 200.824L92.2736 204.215L89.813 208.333L88.3366 210.756L86.8602 213.421L266.486 213.663L269.193 216.328L270.669 218.266L272.884 222.141L274.852 225.533L277.313 230.136L279.282 233.285L283.465 241.521L282.726 241.764L250.492 242.006H35.187L6.15158 241.764L5.90552 240.552L7.62796 237.888L10.5807 232.558L12.0571 230.136L15.0098 224.564L16.4862 222.384L19.439 217.054L20.6693 215.116L23.376 210.271L24.6063 208.333L27.313 203.488L28.5433 201.55L31.25 196.705L32.4803 194.767L35.187 189.922L36.4173 187.984L39.6161 181.928L41.0925 179.748L43.5532 175.145L45.0295 172.965L47.4902 168.362L48.9665 166.182L51.4272 161.579L52.9035 159.399L55.3642 154.797L56.8406 152.616L60.2854 146.076L61.7618 143.895L64.2224 139.293L65.6988 137.112L68.1595 132.51L69.6358 130.329L72.0965 125.727L73.5728 123.547L76.0335 118.944L77.5098 116.764L80.9547 110.223L82.4311 108.043L84.8917 103.44L86.3681 101.26L88.8287 96.657L90.3051 94.4767L92.7658 89.874L94.2421 87.6938L96.7028 83.0911L98.1791 80.9109L101.624 74.3702L103.1 72.1899L105.561 67.5872L107.037 65.407L109.498 60.8043L110.974 58.624L113.435 54.0213L114.911 51.8411L117.372 47.2384L118.848 45.0581L121.309 40.4554L122.785 38.2752L126.23 31.7345L127.707 29.5543L130.167 24.9516L131.644 22.7713L134.104 18.1686L135.581 15.9884L138.533 10.6589L139.764 8.72093L142.47 3.87597L143.947 1.69574L144.931 0Z" fill="#055BFE"/>
<path d="M203.74 106.831L204.478 107.074L205.709 109.496L207.185 111.676L209.4 115.795L211.368 118.944L214.567 125L216.043 127.18L218.258 131.298L220.226 134.448L223.425 140.504L224.902 142.684L227.116 146.802L229.085 149.952L232.037 155.523L234.006 158.673L235.974 162.306L237.943 165.455L240.896 171.027L242.864 174.176L244.833 177.81L246.063 179.748V180.475L245.571 180.717L219.242 180.959H179.626L162.648 180.717L162.156 180.475L162.894 178.295L165.108 174.419L166.585 171.996L169.537 166.424L171.014 164.244L174.459 157.704L175.935 155.523L178.396 150.921L179.872 148.74L183.317 142.2L184.793 140.019L188.238 133.479L189.715 131.298L193.159 124.758L194.636 122.578L197.096 117.975L198.573 115.795L202.018 109.254L203.74 106.831Z" fill="#055BFE"/>
<path d="M323.327 159.157H330.217L330.955 160.126H336.86L337.844 161.095H340.797L341.535 161.579V162.064L343.258 162.306L343.996 163.033L345.472 163.517L345.965 164.002L347.195 164.486L351.378 168.362L354.085 171.269L356.299 175.872L357.283 179.264V183.382L356.299 183.624H348.671L347.933 182.897L347.441 181.928L346.703 178.779L344.734 174.903L342.028 171.996L341.043 171.269L339.321 170.543L338.583 170.058L338.091 170.3L336.368 169.574L336.122 169.331L333.169 169.089L332.185 168.362H321.604L320.62 168.605V169.089L318.652 169.331L318.159 169.089L316.929 169.331L316.683 170.058L314.468 170.3L312.254 171.512L310.039 173.45L308.563 176.357L308.317 177.083V184.593L309.301 187.016L310.531 188.469L311.024 188.711V189.196L312.746 189.438L313.238 190.165H314.468L315.207 191.134H316.437L317.421 192.345L319.39 192.103L320.62 193.314L323.327 193.072L324.557 194.283L327.264 194.041L328.494 195.252L331.201 195.01L332.431 196.221L335.138 195.979L336.368 197.19L338.829 196.948L340.059 198.159L342.028 197.917L343.012 199.128L344.98 198.886L345.718 199.855H346.949L347.687 200.824L349.409 201.308L349.655 202.035L350.886 201.793L352.854 203.973L354.331 205.184L355.561 206.638L356.791 207.849L359.006 211.967L359.744 214.39L360.236 215.359V223.11L359.498 225.291L359.252 227.229L357.283 231.347L356.299 232.8L352.608 236.434L350.886 237.888L343.012 241.764L342.028 242.006L340.305 242.248H316.683L315.945 241.764L314.715 242.006L313.976 241.764L313.484 240.552L312.5 241.279L311.27 240.795L310.531 240.068L309.547 239.826L308.563 239.099L306.841 238.372L304.38 235.95H303.396L300.935 233.043L299.951 231.589L298.474 229.893L296.998 226.744L295.276 221.415V216.57L296.014 216.328H302.904L303.396 215.359H303.888L305.118 218.992L305.61 221.172L308.071 225.775L309.055 226.986L310.285 228.924L311.762 229.167L313.238 230.862L314.961 231.347V231.831L316.683 232.074L316.929 232.8L318.652 233.043L319.636 234.012L323.081 233.769L324.065 234.738H335.384L335.63 234.012L336.614 233.769L339.321 234.012L339.813 233.043L340.797 232.8L342.274 233.043L342.766 232.074L344.242 231.831L345.718 230.136L346.949 229.167L349.163 226.502L349.655 224.322L350.148 222.384V217.539L349.655 215.359L348.179 212.936L346.211 210.998H345.472L343.996 210.029L343.012 209.06V208.576H342.52V209.06L340.797 208.818L340.059 208.091V207.607H339.567V208.091H338.091L337.106 207.122V206.638H336.614V207.122H335.138L334.154 206.153V205.669H333.415L333.169 206.395L329.97 205.911L328.986 204.942L328.248 204.7L328.002 205.184L326.033 204.942L325.295 204.457V203.731H324.557V204.215H323.327L321.604 202.762V203.246L318.898 203.004L318.405 202.519V201.793H317.667V202.277H316.191L315.453 201.55V200.824H314.715V201.55L312.992 201.066L312.5 199.855H311.762V200.581L310.285 200.097L309.301 199.128H308.317L306.594 197.19L305.856 197.674L302.411 194.041L300.935 191.86L299.459 189.196L298.228 185.804L297.982 183.382V179.99L298.228 176.599L299.705 172.481L301.181 170.3L307.579 164.002L308.809 163.76L309.793 163.033L310.778 163.275L311.27 162.306L312.254 162.064L313.73 162.306L314.222 161.337L314.961 161.095L316.683 161.337L316.929 160.368L317.913 160.126H320.62L322.589 160.368L322.835 159.399L323.327 159.157Z" fill="#055BFE"/>
<path d="M391.732 182.655H406.25L406.988 183.382L409.449 183.866L409.941 184.351L411.417 184.835L413.632 186.047L415.108 186.773L419.045 190.407L420.768 192.103L422.244 194.041L425.197 200.097L426.181 203.004L426.427 206.395L427.165 207.607V217.297L426.427 219.961L426.181 223.11L424.705 227.471L422.49 231.589L420.768 234.012L419.045 235.95L416.585 238.13L415.6 238.372L414.124 239.583L408.957 242.006L407.972 242.248H389.518L388.78 241.764L387.549 242.006L386.073 241.037L384.843 240.552L383.12 239.099L381.89 238.614L380.167 236.919V236.434H379.675L377.953 234.496L376.969 233.285L375 229.893L374.016 228.44L373.031 225.775L372.047 222.626L371.555 218.265L371.063 216.812V208.333L371.555 207.607L371.801 206.395L372.047 202.762L373.524 198.643L375.984 194.041L376.969 192.587L383.366 186.289L384.596 186.047L385.827 185.32L386.811 184.835L388.041 184.351L389.518 183.382L391.486 183.624L391.732 182.655ZM396.9 189.438L396.407 190.165L392.224 190.407L391.24 191.134L390.01 191.618L387.549 193.798L385.089 196.463L383.12 200.339L381.89 203.246L381.152 207.364L380.906 208.818V218.508L381.644 220.93L382.136 223.11L383.612 226.986L385.581 230.62L388.041 233.043L389.272 234.012L390.502 234.254L391.24 235.223L392.963 234.981L393.947 235.95H404.281L405.02 234.981H407.234L407.726 234.254L409.203 233.769L411.171 232.074V231.589L411.909 231.347L413.386 229.409L416.093 223.837L416.585 220.93L417.077 219.961L417.323 217.297V210.029L417.077 206.395L416.585 205.184L415.846 201.793L414.616 198.643L413.386 196.705L411.171 194.283L409.203 192.345L407.972 191.376L406.742 191.134L405.512 190.165L405.266 190.649L401.575 189.922L401.083 189.438H396.9Z" fill="#055BFE"/>
<path d="M462.598 159.157L463.583 159.641L463.829 160.126L467.274 160.368L467.52 160.61V163.517L467.028 165.455L466.535 167.878L466.289 168.12L456.201 168.362L454.232 169.574L453.002 171.512L452.264 173.45L452.018 174.903L451.772 183.624H463.583V190.407L461.86 190.649L452.018 190.407L451.772 242.248L443.652 242.49L442.913 242.248L442.667 241.521V190.407H433.071V183.866L433.317 183.624H442.667V172.723L442.913 170.543L444.39 166.667L446.112 164.244L447.835 162.548L452.756 160.126L455.463 160.368L455.709 159.399L462.598 159.157Z" fill="#055BFE"/>
<path d="M483.76 163.033L484.252 163.275V183.624H493.848L494.095 183.866V190.165L493.848 190.407H484.498V231.347L485.482 233.769L488.927 234.012L489.665 234.981L490.65 234.738L491.388 234.012L493.602 233.769L494.095 235.223L495.079 238.372V242.006L494.833 242.248H483.268L480.315 241.521L478.1 240.31L476.378 238.372L475.394 236.192L474.656 233.043L474.163 230.862V190.649H466.782L466.535 190.407V183.624H474.163V171.512L474.409 169.331L476.378 167.636L480.315 165.455L481.545 164.486L483.76 163.033Z" fill="#055BFE"/>
</svg>
