<svg width="1400" height="250" viewBox="0 0 1400 250" fill="none" xmlns="http://www.w3.org/2000/svg">
<path d="M600.879 86.377H613.867L618.652 92.5293L626.172 103.467L635.742 117.139L641.211 125.342L641.895 87.0605L642.578 86.377H655.566L656.934 87.0605V149.951L656.25 150.635H643.262L635.742 140.381L626.855 127.393L615.918 111.67H615.234V149.951L614.551 150.635H600.879V86.377Z" fill="#0A6A39"/>
<path d="M783.398 86.377H808.691L818.262 87.7441L824.414 91.1621L829.199 96.6309L831.25 103.467V110.303L829.199 117.139L825.781 121.924L820.996 125.342L831.934 145.166L833.984 148.584V150.635H818.262L810.742 136.279L806.641 128.076L797.754 127.393V149.951L797.07 150.635H784.082L783.398 149.951V86.377ZM797.754 97.998V115.771H810.742L814.844 113.037L816.895 108.936L816.211 102.783L812.793 99.3652L808.691 97.998H797.754Z" fill="#036533"/>
<path d="M422.461 90.4785L432.715 91.1621L441.602 93.8965L448.438 97.998L456.641 105.518L461.426 113.037L464.16 120.557L464.844 123.975V158.154L462.109 173.877L458.008 187.549L452.539 199.854L445.703 211.475L440.234 218.994L432.031 228.564L429.297 229.932L425.195 229.248L424.512 225.146L430.664 217.627L438.184 208.057L444.336 197.119L449.121 187.549L453.223 175.244L455.957 162.939L456.641 155.42V125.342L454.59 118.506L450.488 110.986L445.02 105.518L437.5 101.416L431.348 99.3652H417.676L410.156 102.1L403.32 106.201L397.852 112.354L393.75 120.557L392.383 126.025L391.699 145.166L391.016 154.053L388.281 162.256L384.18 169.775L376.66 178.662L370.508 185.498L366.406 186.182L363.672 183.447L365.039 179.346L372.559 171.143L378.027 164.307L382.129 155.42L383.496 145.85L384.18 124.658L386.23 117.139L390.332 108.936L395.801 102.1L402.637 96.6309L410.84 92.5293L416.309 91.1621L422.461 90.4785Z" fill="#076836"/>
<path d="M728.711 86.377H771.777V99.3652H743.066V111.67L764.941 112.354V123.291L760.84 123.975H745.117L743.066 123.291V137.646H773.828V150.635H728.711L728.027 149.951V87.0605L728.711 86.377Z" fill="#0D6B3B"/>
<path d="M905.078 86.377H920.801L923.535 91.8457L936.523 127.393L944.727 149.268V150.635H929.004L924.219 136.963V135.596H900.977L898.926 143.115L896.191 150.635H881.152L883.203 143.799L892.773 117.822L903.711 88.4277L905.078 86.377ZM911.914 101.416L905.078 122.607V124.658H920.117L918.75 118.506L913.281 101.416H911.914Z" fill="#056735"/>
<path d="M1013.77 86.377H1056.84L1057.52 87.0605V99.3652H1028.12L1028.81 111.67L1050 112.354V123.291L1049.32 123.975H1028.81L1028.12 137.646H1059.57V149.951L1058.89 150.635H1013.77V86.377Z" fill="#086937"/>
<path d="M419.043 105.518H429.98L436.133 107.568L443.652 113.037L448.438 119.873L449.805 123.975L450.488 130.127V152.686L448.438 167.725L445.703 178.662L439.551 193.018L434.082 202.588L427.93 210.791L412.891 227.197L409.473 229.932L405.371 229.248L404.688 224.463L412.207 216.26L419.043 208.74L425.879 199.854L432.715 188.232L438.184 174.561L441.602 158.838V125.342L437.5 118.506L432.715 115.088L428.613 113.721H420.41L413.574 117.139L409.473 121.924L407.422 126.709L406.055 152.686L404.004 162.256L400.586 170.459L396.484 177.979L390.332 185.498L380.762 195.752L379.395 197.119L374.609 196.436L373.926 192.334L379.395 185.498L386.23 177.979L392.383 168.408L395.801 160.889L397.852 150.635L398.535 132.178L399.902 121.924L404.004 115.088L408.789 110.303L414.258 106.885L419.043 105.518Z" fill="#0A6A39"/>
<path d="M974.805 85.0098H983.691L991.895 87.0605L998.73 90.4785L1004.88 96.6309L1003.52 99.3652L996.68 106.201H994.629L991.211 102.1L985.742 99.3652L978.223 98.6816L971.387 100.732L965.918 105.518L963.184 110.986L962.5 113.721V123.291L965.234 130.127L969.336 134.912L974.805 137.646L982.324 138.33L988.477 136.279L992.578 133.545L995.312 130.811L998.047 131.494L1005.57 138.33L1004.2 141.064L1000.78 144.482L995.312 148.584L987.793 151.318L983.691 152.002H974.805L966.602 149.951L959.766 146.533L953.613 141.064L949.512 134.229L946.777 126.709V110.303L949.512 102.783L954.297 95.2637L959.766 90.4785L967.969 86.377L974.805 85.0098Z" fill="#046634"/>
<path d="M422.461 119.873L429.297 120.557L434.082 124.658L435.449 127.393V155.42L433.398 167.041L429.98 178.662L424.512 190.283L417.676 199.854L409.473 209.424L398.535 221.045L396.484 223.096L392.383 222.412L391.699 221.729V216.943L401.953 206.006L410.156 196.436L414.941 189.6L421.777 176.611L425.195 166.357L427.246 152.686V129.443L426.562 128.76H422.461L421.777 130.127L421.094 150.635L419.043 162.939L414.941 175.244L409.473 184.814L402.637 193.701L393.066 203.955L388.281 209.424L386.23 211.475H382.129L380.762 210.107V206.006L386.914 199.17L394.434 190.967L401.953 181.396L408.105 169.775L411.523 158.838L412.207 155.42L412.891 136.279L413.574 127.393L416.309 123.291L420.41 120.557L422.461 119.873Z" fill="#086938"/>
<path d="M842.188 86.377H885.938V99.3652H857.227V113.721H879.102V126.025H857.227V149.951L856.543 150.635H842.871L842.188 149.951V86.377Z" fill="#026532"/>
<path d="M485.352 36.4746L489.453 37.8418L493.555 40.5762L501.758 48.0957L507.91 55.6152L512.012 64.502L513.379 70.6543V84.3262L515.43 91.1621L518.164 95.2637L525.684 103.467L527.051 106.201V110.986L525 115.088L520.898 118.506L525 123.291L525.684 126.709L523.633 130.127V136.963L520.215 140.381L518.164 141.064L520.898 150.635V158.154L517.48 162.256L512.695 164.307L499.707 167.041L491.504 169.775L484.668 173.877L477.832 181.396L473.73 188.232L468.262 199.17L462.109 214.893L455.957 231.299L455.273 231.982H451.855L450.488 230.615L451.855 223.096L458.691 204.639L464.16 192.334L471.68 178.662L479.199 169.775L486.035 164.99L496.289 160.889L512.012 157.471L514.746 156.787L513.379 149.951L512.012 145.166V140.381L514.062 136.279L516.797 134.229L516.113 129.443L518.164 125.342L514.746 121.924L513.379 117.822L515.43 114.404L520.215 110.303L519.531 106.201L512.695 99.3652L508.594 92.5293L506.543 84.3262V70.6543L503.809 62.4512L499.707 55.6152L490.82 46.7285L483.301 41.2598L482.617 38.5254L485.352 36.4746Z" fill="#096938"/>
<path d="M664.453 86.377H719.824V99.3652H700V149.951L699.316 150.635H684.961V99.3652H664.453V86.377Z" fill="#0A6A39"/>
<path d="M416.309 46.7285H432.715L438.867 48.0957L440.234 50.1465L439.551 53.5645L438.184 54.9316H416.992L405.371 56.9824L395.117 60.4004L385.547 65.1855L373.926 73.3887L366.406 80.9082L358.203 92.5293L353.418 102.783L349.316 116.455L347.266 129.443L345.898 130.811H341.797L340.43 129.443V119.189L343.164 106.885L347.266 95.9473L352.734 85.6934L358.887 77.4902L367.09 68.6035L374.609 62.4512L383.496 56.9824L395.117 51.5137L407.422 48.0957L416.309 46.7285Z" fill="#056735"/>
<path d="M419.043 61.7676H434.766L449.121 65.1855L460.059 70.6543L468.262 76.123L477.148 84.3262L484.668 94.5801L490.137 105.518L492.871 114.404L494.238 122.607V148.584L492.188 149.951L488.086 149.268L486.719 145.166L486.035 123.291L483.984 113.721L480.566 104.834L475.098 95.2637L469.629 88.4277L462.793 82.2754L451.855 75.4395L440.918 71.3379L426.562 69.2871L418.359 68.6035L416.992 66.5527L417.676 62.4512L419.043 61.7676Z" fill="#076837"/>
<path d="M574.219 86.377H587.891L588.574 87.0605V149.951L587.891 150.635H574.219L573.535 149.951V87.0605L574.219 86.377Z" fill="#076837"/>
<path d="M411.523 32.373H436.816L451.172 35.1074L462.793 39.209L474.414 44.6777L485.352 52.1973L493.555 59.7168L496.973 63.1348L496.289 67.9199L491.504 68.6035L486.719 63.8184L475.098 54.9316L462.793 48.0957L451.855 43.9941L440.234 41.2598L435.449 40.5762H413.574L404.688 41.9434H400.586L399.219 40.5762V35.791L404.004 33.7402L411.523 32.373Z" fill="#066836"/>
<path d="M375.293 82.2754H378.711L380.078 84.3262V87.7441L373.926 95.2637L367.773 106.201L364.355 116.455L362.988 127.393L362.305 147.217L360.254 152.686L353.418 160.205H349.316L347.949 158.838V154.736L353.418 147.9L354.102 145.166L354.785 123.291L356.836 112.354L360.938 101.416L365.723 92.5293L371.191 85.6934L375.293 82.2754Z" fill="#056735"/>
<path d="M458.008 89.1113L461.426 89.7949L468.945 97.3145L474.414 106.201L477.832 115.088L479.883 126.025V152.686L478.516 165.674L477.148 167.041H472.363L470.996 165.674L471.68 152.686V127.393L470.312 119.189L466.895 110.303L462.793 103.467L456.641 96.6309L455.273 94.5801V91.1621L458.008 89.1113Z" fill="#056735"/>
<path d="M416.309 17.334H431.348L448.438 19.3848L453.223 21.4355L453.906 22.1191V26.2207L452.539 27.5879H447.07L432.715 25.5371H415.625L401.953 27.5879L387.598 31.6895L380.078 35.1074H373.926L373.242 30.3223L375.977 27.5879L392.383 21.4355L404.004 18.7012L416.309 17.334Z" fill="#096938"/>
<path d="M413.574 76.8066H419.043L421.094 78.8574L420.41 82.959L406.055 87.7441L397.168 92.5293L390.332 98.6816L386.23 103.467L382.129 110.303L378.711 119.873L376.66 132.861L375.977 134.229H370.508L369.141 131.494L369.824 121.24L373.242 109.619L378.027 100.732L384.18 93.2129L388.965 88.4277L399.219 81.5918L408.105 78.1738L413.574 76.8066Z" fill="#076836"/>
<path d="M386.23 39.209L391.016 39.8926L391.699 44.6777L388.281 47.4121L375.293 54.248L367.773 59.7168L360.938 65.8691L354.102 72.7051L351.367 76.123H347.266L345.215 72.7051L347.266 68.6035L354.785 60.4004L359.57 55.6152L368.457 48.7793L382.812 40.5762L386.23 39.209Z" fill="#086937"/>
<path d="M482.617 72.7051L486.719 73.3887L493.555 81.5918L499.707 91.1621L504.492 102.1L505.176 106.201L503.125 108.936H499.023L496.973 105.518L490.137 91.1621L484.668 83.6426L480.566 78.8574V74.7559L482.617 72.7051Z" fill="#076837"/>
<path d="M894.141 178.662H904.395L910.547 180.029L915.332 184.131L917.383 189.6V194.385L915.332 200.537L911.23 203.955L907.129 205.322H894.141L893.457 204.639V179.346L894.141 178.662ZM897.559 182.764V201.904H905.762L910.547 199.854L912.598 196.436L913.281 191.65L911.914 186.182L908.496 183.447L907.129 182.764H897.559Z" fill="#187345"/>
<path d="M371.875 141.064L375.977 141.748L376.66 142.432V150.635L373.926 158.154L369.824 164.307L361.621 173.193L359.57 175.244L355.469 174.561L354.102 173.193L354.785 169.092L359.57 163.623L365.723 156.104L368.457 149.268L369.824 142.432L371.875 141.064Z" fill="#056735"/>
<path d="M958.398 186.182L965.918 186.865L967.285 187.549V208.74L965.234 212.158L959.082 214.209L952.246 212.842L951.562 210.791L952.246 209.424L959.766 210.107L962.5 208.74L963.867 203.955L961.133 205.322H954.297L950.879 202.588L949.512 199.854V193.701L951.562 189.6L955.664 186.865L958.398 186.182ZM958.398 189.6L954.98 191.65L953.613 193.701V199.854L957.031 202.588L961.133 201.904L963.184 199.854L963.867 198.486V190.967L962.5 189.6H958.398Z" fill="#0A6A39"/>
<path d="M448.438 51.5137H453.906L462.109 54.9316L473.73 61.7676L476.465 64.502V67.9199L474.414 69.9707L469.629 69.2871L458.691 62.4512L447.754 57.666L447.07 56.9824V52.8809L448.438 51.5137Z" fill="#066735"/>
<path d="M585.156 177.979L591.992 179.346L595.41 182.08L594.727 184.814H591.992L588.574 182.764H582.422L579.004 184.814L576.953 189.6V195.068L579.004 199.17L581.738 201.221L587.207 201.904L591.309 199.854L593.359 198.486L595.41 199.854L594.727 202.588L590.625 205.322L588.574 206.006H581.738L576.27 203.271L572.852 197.803L572.168 195.752V188.232L574.902 182.764L579.004 179.346L585.156 177.979Z" fill="#0A6A39"/>
<path d="M825.098 178.662H828.516V205.322H825.098V203.955L820.996 206.006H816.211L812.109 202.588L810.742 199.854V193.701L812.793 189.6L816.211 186.865L820.996 186.182L825.098 187.549V178.662ZM818.945 189.6L816.211 190.967L814.844 193.018V199.854L817.578 202.588H821.68L824.414 200.537L825.098 198.486V191.65L822.363 189.6H818.945Z" fill="#0B6B3A"/>
<path d="M405.371 63.8184L409.473 64.502L410.84 67.9199L408.105 71.3379L397.852 75.4395L387.598 80.9082L383.496 79.541V74.7559L386.914 72.0215L396.484 66.5527L405.371 63.8184Z" fill="#086937"/>
<path d="M615.918 186.182L622.07 186.865L625.488 190.283L626.855 193.018V197.119H612.5L614.551 201.221L615.918 201.904H622.07L624.805 200.537L626.172 203.271L623.438 205.322L621.387 206.006H615.234L611.816 203.955L609.082 200.537L608.398 194.385L610.449 189.6L613.867 186.865L615.918 186.182ZM615.918 189.6L612.5 193.018V194.385H623.438L621.387 190.283L620.02 189.6H615.918Z" fill="#0E6D3D"/>
<path d="M786.816 186.182H791.602L795.703 188.232L797.07 190.967V205.322H793.652V203.955L789.551 206.006H784.766L781.348 203.271L780.664 201.904V197.803L783.398 194.385L785.449 193.701L792.969 193.018L791.602 190.283H786.133L782.715 190.967L782.031 188.232L786.816 186.182ZM786.816 196.436L784.766 197.803V201.904L786.816 203.271L790.918 202.588L793.652 199.17V197.119L792.285 196.436H786.816Z" fill="#0A6A39"/>
<path d="M1030.86 186.182H1035.64L1039.75 188.232L1041.11 190.283V205.322H1037.7H1035.64L1029.49 206.006L1026.07 203.955L1024.71 199.854L1026.76 195.068L1029.49 193.701H1037.7L1035.64 190.283H1030.18L1026.76 190.967L1026.07 188.232L1030.86 186.182ZM1030.86 196.436L1028.81 198.486V201.904L1030.86 203.271L1034.96 202.588L1037.7 199.854L1037.01 196.436H1030.86Z" fill="#096938"/>
<path d="M850.391 186.182L856.543 186.865L861.328 190.967L862.012 193.018V199.854L859.277 203.955L855.176 206.006H849.707L845.605 203.955L842.871 199.854L842.188 195.068L844.238 190.283L848.34 186.865L850.391 186.182ZM850.391 189.6L846.973 192.334L846.289 198.486L849.707 202.588H855.176L857.91 199.854L858.594 194.385L856.543 190.967L854.492 189.6H850.391Z" fill="#0B6B3A"/>
<path d="M429.98 76.8066H435.449L443.652 78.8574L449.121 81.5918L450.488 82.959L449.805 87.0605L448.438 88.4277L442.969 87.7441L434.766 85.0098L429.98 83.6426L428.613 82.2754V78.1738L429.98 76.8066Z" fill="#076836"/>
<path d="M716.406 177.979L722.559 179.346L721.191 182.764L716.406 182.08L715.039 183.447L714.355 186.865H719.824L719.141 190.283H714.355V205.322H710.254V190.283H707.52V186.865H710.254L710.938 182.08L713.672 178.662L716.406 177.979Z" fill="#147041"/>
<path d="M1002.15 180.713H1006.25V186.865H1011.72V190.283H1006.25L1006.93 202.588L1012.4 201.904L1013.09 204.639L1010.35 206.006H1005.57L1002.83 203.271L1002.15 199.17V190.283H999.414V186.865H1002.15V180.713Z" fill="#116E3E"/>
<path d="M666.504 180.713H670.605V186.865H676.074L675.391 190.283H670.605L671.289 201.904H676.758L677.441 204.639L674.707 206.006L668.555 205.322L666.504 200.537V190.283H663.77V186.865H666.504V180.713Z" fill="#167143"/>
<path d="M758.789 186.182H763.574L767.676 188.232L768.359 189.6L766.992 191.65L763.574 190.283H759.473L756.055 193.701V199.17L758.789 201.904H763.574L766.309 200.537L768.359 202.588L765.625 205.322L764.258 206.006H758.105L754.004 203.955L751.27 198.486V193.701L754.004 188.916L758.789 186.182Z" fill="#0F6D3D"/>
<path d="M464.16 24.8535L469.629 26.2207L479.199 31.0059L479.883 35.1074L477.148 37.8418L473.73 37.1582L463.477 32.373L461.426 30.3223L462.109 26.2207L464.16 24.8535Z" fill="#0C6B3A"/>
<path d="M640.527 186.865H644.629L645.312 188.232L648.047 186.865H652.148V190.283L646.68 191.65L645.312 193.701L644.629 205.322H640.527V186.865Z" fill="#056735"/>
<path d="M1056.15 178.662L1059.57 179.346V205.322H1056.15L1055.47 199.854V184.131L1056.15 178.662Z" fill="#1D7548"/>
<path d="M733.496 186.865H737.598V205.322H733.496V186.865Z" fill="#006431"/>
<path d="M690.43 186.865H694.531V205.322H690.43V186.865Z" fill="#1C7548"/>
<path d="M931.738 186.865H935.156L935.84 188.232L935.156 205.322H931.738V186.865Z" fill="#016532"/>
<path d="M982.324 186.865H985.742V205.322H982.324V186.865Z" fill="#006431"/>
<path d="M982.324 179.346H985.742L986.426 180.029V183.447H981.641V180.029L982.324 179.346Z" fill="#2C7E54"/>
<path d="M931.738 179.346H935.84V183.447H931.738L931.055 180.029L931.738 179.346Z" fill="#147041"/>
<path d="M733.496 179.346H737.598V183.447H733.496V179.346Z" fill="#076836"/>
<path d="M690.43 179.346H693.848L694.531 180.029V183.447H690.43V179.346Z" fill="#006431"/>
</svg>
