<?xml version="1.0" encoding="UTF-8"?><svg id="Camada_1" xmlns="http://www.w3.org/2000/svg" viewBox="0 0 1080 1080"><defs><style>.cls-1{fill:#06a84d;}.cls-2{fill:#4a4a49;}</style></defs><g><path class="cls-2" d="M554.43,411.66v108.71h-30.13l-41.31-49.39v49.39h-35.72v-108.71h30.13l41.31,49.39v-49.39h35.72Z"/><path class="cls-2" d="M561.25,466.02c0-32.92,25.94-56.84,61.34-56.84s61.35,23.92,61.35,56.84-25.94,56.84-61.35,56.84-61.34-23.92-61.34-56.84Zm85.73,0c0-16.93-10.87-27.18-24.38-27.18s-24.38,10.25-24.38,27.18,10.87,27.18,24.38,27.18,24.38-10.25,24.38-27.18Z"/><path class="cls-2" d="M712.83,440.08h-31.84v-28.42h100.33v28.42h-31.84v80.29h-36.65v-80.29Z"/><path class="cls-2" d="M848.56,501.43h-41.31l-7.3,18.95h-37.27l47.52-108.71h36.03l47.52,108.71h-37.89l-7.3-18.95Zm-10.09-26.4l-10.56-27.33-10.56,27.33h21.12Z"/><path class="cls-2" d="M554.43,540.98v108.71h-30.13l-41.31-49.39v49.39h-35.72v-108.71h30.13l41.31,49.39v-49.39h35.72Z"/><path class="cls-2" d="M601.01,568.63v18.64h45.35v27.64h-45.35v34.79h-36.65v-108.71h88.37v27.64h-51.72Z"/><path class="cls-2" d="M751.81,622.05v27.64h-90.39v-108.71h88.37v27.64h-52.34v12.73h45.97v26.4h-45.97v14.29h54.36Z"/></g><g><g><rect class="cls-2" x="249.94" y="467.47" width="59.73" height="7.13"/><rect class="cls-2" x="249.94" y="485.48" width="59.73" height="7.13"/><rect class="cls-2" x="249.94" y="503.5" width="59.73" height="7.13"/><polygon class="cls-2" points="249.94 528.64 249.94 521.51 309.67 521.51 304.11 528.64 249.94 528.64"/><polygon class="cls-2" points="325.15 436.88 234.46 436.88 220.23 436.88 220.23 451.1 220.23 517.74 234.46 528.64 234.46 451.1 325.15 451.1 325.15 507.3 339.38 493.07 339.38 451.1 339.38 436.88 325.15 436.88"/><polygon class="cls-2" points="351.12 410.91 246.19 410.91 246.19 425.14 351.12 425.14 351.12 481.34 365.34 467.11 365.34 425.14 365.34 410.91 351.12 410.91"/></g><path class="cls-1" d="M414.49,497.78s-64.71,42.73-135.03,153.14c0,0-50-56.58-93.21-89.75l28.07-36.1s37.1,29.04,62.35,60.34c0,0,24.75-51.27,108.63-125.63l29.19,37.99Z"/></g></svg>